<svg id="svg" version="1.1" xmlns="http://www.w3.org/2000/svg" xmlns:xlink="http://www.w3.org/1999/xlink" width="400" height="400" viewBox="0, 0, 400,400"><g id="svgg"><path id="path0" d="M237.400 105.643 C 230.084 106.103,225.285 106.915,218.800 108.789 C 217.150 109.266,215.350 109.763,214.800 109.893 C 214.250 110.023,213.210 110.460,212.488 110.865 C 211.766 111.269,210.911 111.600,210.588 111.600 C 210.265 111.600,210.000 111.780,210.000 112.000 C 210.000 112.220,209.640 112.400,209.200 112.400 C 208.760 112.400,208.400 112.580,208.400 112.800 C 208.400 113.020,208.040 113.200,207.600 113.200 C 207.160 113.200,206.800 113.380,206.800 113.600 C 206.800 113.820,206.455 114.000,206.033 114.000 C 205.612 114.000,205.207 114.135,205.133 114.300 C 204.966 114.676,202.836 115.975,201.900 116.271 C 201.515 116.393,201.200 116.652,201.200 116.847 C 201.200 117.041,200.922 117.200,200.583 117.200 C 200.244 117.200,199.749 117.378,199.483 117.595 C 198.240 118.610,195.171 120.800,194.991 120.800 C 193.701 120.800,184.660 131.757,183.167 135.129 C 182.858 135.828,182.469 136.400,182.302 136.400 C 182.136 136.400,182.000 136.665,182.000 136.988 C 182.000 137.311,181.653 138.193,181.230 138.947 C 180.269 140.658,179.185 143.699,178.787 145.800 C 178.621 146.680,178.175 148.480,177.797 149.800 C 176.446 154.514,176.980 176.523,178.467 177.442 C 178.650 177.555,178.800 178.168,178.800 178.805 C 178.800 179.441,179.002 180.466,179.250 181.081 C 179.497 181.697,179.878 182.650,180.096 183.200 C 180.315 183.750,180.652 184.513,180.847 184.895 C 181.041 185.277,181.200 185.952,181.200 186.395 C 181.200 186.838,181.336 187.200,181.502 187.200 C 181.669 187.200,182.063 187.785,182.378 188.500 C 184.399 193.088,188.787 198.661,192.849 201.800 C 194.557 203.120,195.965 204.335,195.977 204.500 C 195.990 204.665,196.255 204.800,196.567 204.800 C 196.878 204.800,197.193 204.945,197.267 205.123 C 197.452 205.573,201.056 208.000,201.539 208.000 C 201.756 208.000,201.993 208.135,202.067 208.300 C 202.503 209.282,216.370 215.600,218.088 215.600 C 218.392 215.600,218.811 215.751,219.020 215.936 C 219.229 216.120,220.443 216.511,221.719 216.804 C 222.994 217.097,224.130 217.486,224.242 217.668 C 224.355 217.851,224.966 218.000,225.600 218.000 C 226.234 218.000,226.864 218.180,227.000 218.400 C 227.136 218.620,227.651 218.800,228.144 218.800 C 228.637 218.800,229.211 218.947,229.420 219.127 C 229.629 219.307,230.790 219.680,232.000 219.956 C 233.210 220.233,234.650 220.606,235.200 220.787 C 235.750 220.967,237.280 221.330,238.600 221.593 C 239.920 221.855,241.313 222.235,241.695 222.435 C 242.077 222.636,242.921 222.800,243.571 222.800 C 244.221 222.800,244.864 222.980,245.000 223.200 C 245.136 223.420,245.694 223.600,246.240 223.600 C 246.786 223.600,248.350 223.941,249.716 224.358 C 251.082 224.775,253.280 225.419,254.600 225.788 C 258.596 226.908,262.127 228.136,263.512 228.888 C 264.234 229.280,265.044 229.604,265.312 229.609 C 265.580 229.614,266.250 229.970,266.800 230.400 C 267.350 230.830,268.115 231.186,268.500 231.191 C 268.885 231.196,269.200 231.350,269.200 231.532 C 269.200 231.715,269.692 232.120,270.294 232.432 C 276.608 235.707,280.036 242.698,278.783 249.747 C 278.485 251.426,278.097 252.800,277.920 252.800 C 277.744 252.800,277.600 253.050,277.600 253.356 C 277.600 256.160,270.626 262.195,265.400 263.913 C 264.520 264.202,263.440 264.598,263.000 264.792 C 262.560 264.987,261.570 265.246,260.800 265.369 C 260.030 265.492,258.140 265.795,256.600 266.042 C 252.050 266.773,240.332 266.063,235.400 264.758 C 234.520 264.525,233.080 264.147,232.200 263.918 C 229.061 263.103,224.194 261.495,223.820 261.150 C 223.611 260.958,223.133 260.800,222.758 260.800 C 222.383 260.800,221.384 260.454,220.538 260.030 C 219.692 259.607,218.415 259.023,217.700 258.733 C 216.985 258.442,216.400 258.069,216.400 257.902 C 216.400 257.736,216.040 257.600,215.600 257.600 C 215.160 257.600,214.800 257.453,214.800 257.273 C 214.800 257.093,213.495 256.267,211.900 255.437 C 208.918 253.885,201.072 248.737,199.994 247.625 C 199.661 247.281,199.098 246.820,198.742 246.600 C 198.386 246.380,197.249 245.596,196.214 244.857 C 192.654 242.318,189.767 242.823,186.985 246.471 C 186.125 247.599,185.236 248.719,185.009 248.961 C 184.624 249.370,181.758 252.840,180.400 254.538 C 180.070 254.951,179.612 255.494,179.382 255.745 C 178.220 257.010,172.800 264.411,172.800 264.732 C 172.800 264.935,172.534 265.323,172.208 265.593 C 170.746 266.807,169.604 272.000,170.800 272.000 C 171.020 272.000,171.200 272.241,171.200 272.535 C 171.200 275.579,200.742 294.412,205.500 294.401 C 205.775 294.401,206.000 294.580,206.000 294.800 C 206.000 295.020,206.349 295.200,206.776 295.200 C 207.203 295.200,207.664 295.380,207.800 295.600 C 207.936 295.820,208.476 296.000,209.000 296.000 C 209.524 296.000,210.064 296.180,210.200 296.400 C 210.336 296.620,210.876 296.800,211.400 296.800 C 211.924 296.800,212.464 296.980,212.600 297.200 C 212.736 297.420,213.276 297.600,213.800 297.600 C 214.324 297.600,214.864 297.780,215.000 298.000 C 215.136 298.220,215.689 298.400,216.229 298.400 C 216.769 298.400,217.523 298.558,217.905 298.751 C 219.226 299.418,221.462 300.000,222.705 300.000 C 223.391 300.000,224.064 300.180,224.200 300.400 C 224.336 300.620,225.031 300.800,225.744 300.800 C 226.457 300.800,227.211 300.964,227.420 301.165 C 227.629 301.365,228.790 301.625,230.000 301.742 C 231.210 301.859,233.730 302.186,235.600 302.470 C 237.680 302.785,242.883 302.986,249.000 302.988 C 258.358 302.990,262.007 302.721,268.000 301.584 C 269.210 301.354,270.787 301.064,271.504 300.939 C 272.221 300.814,272.906 300.551,273.027 300.356 C 273.148 300.160,273.856 300.000,274.600 300.000 C 275.344 300.000,276.064 299.820,276.200 299.600 C 276.336 299.380,276.876 299.200,277.400 299.200 C 277.924 299.200,278.464 299.020,278.600 298.800 C 278.736 298.580,279.109 298.400,279.428 298.400 C 279.747 298.400,280.862 298.022,281.904 297.560 C 282.947 297.098,284.160 296.583,284.600 296.416 C 287.159 295.443,296.592 290.187,297.865 289.025 C 298.121 288.791,298.894 288.169,299.582 287.642 C 301.461 286.203,307.167 280.355,307.916 279.100 C 308.277 278.495,308.714 278.000,308.886 278.000 C 309.059 278.000,309.200 277.730,309.200 277.400 C 309.200 277.070,309.350 276.800,309.532 276.800 C 309.715 276.800,310.120 276.305,310.432 275.700 C 310.744 275.095,311.089 274.510,311.199 274.400 C 311.400 274.200,311.648 273.775,313.451 270.546 C 314.732 268.252,316.800 262.587,316.800 261.373 C 316.800 260.838,316.980 260.400,317.200 260.400 C 317.420 260.400,317.600 259.691,317.600 258.824 C 317.600 257.957,317.780 257.136,318.000 257.000 C 318.220 256.864,318.400 255.604,318.400 254.200 C 318.400 252.796,318.580 251.536,318.800 251.400 C 319.303 251.089,319.341 239.509,318.841 238.980 C 318.643 238.771,318.381 237.340,318.258 235.800 C 317.589 227.404,312.449 213.673,309.523 212.467 C 309.345 212.393,309.200 212.160,309.200 211.948 C 309.200 211.737,308.795 211.142,308.300 210.627 C 307.805 210.111,306.567 208.814,305.550 207.745 C 303.454 205.542,302.134 204.400,301.684 204.400 C 301.515 204.400,301.117 204.040,300.800 203.600 C 300.483 203.160,299.993 202.800,299.712 202.800 C 299.430 202.800,299.200 202.658,299.200 202.485 C 299.200 202.311,298.165 201.551,296.900 200.795 C 295.635 200.039,294.510 199.308,294.400 199.171 C 294.290 199.034,292.040 197.881,289.400 196.609 C 286.760 195.337,284.287 194.140,283.905 193.948 C 283.523 193.757,282.938 193.600,282.605 193.600 C 282.272 193.600,282.000 193.420,282.000 193.200 C 282.000 192.980,281.651 192.800,281.224 192.800 C 280.797 192.800,280.336 192.620,280.200 192.400 C 280.064 192.180,279.513 192.000,278.976 192.000 C 278.439 192.000,278.000 191.820,278.000 191.600 C 278.000 191.380,277.651 191.200,277.224 191.200 C 276.797 191.200,276.336 191.020,276.200 190.800 C 276.064 190.580,275.524 190.400,275.000 190.400 C 274.476 190.400,273.936 190.220,273.800 190.000 C 273.664 189.780,273.124 189.600,272.600 189.600 C 272.076 189.600,271.536 189.420,271.400 189.200 C 271.264 188.980,270.563 188.800,269.843 188.800 C 269.123 188.800,268.410 188.677,268.259 188.526 C 267.810 188.076,265.070 187.213,264.074 187.206 C 263.564 187.203,262.790 187.009,262.353 186.775 C 261.916 186.541,260.443 186.102,259.079 185.799 C 254.680 184.823,247.020 182.773,246.305 182.381 C 245.923 182.171,245.169 182.000,244.629 182.000 C 244.089 182.000,243.536 181.820,243.400 181.600 C 243.264 181.380,242.634 181.200,242.000 181.200 C 241.366 181.200,240.736 181.020,240.600 180.800 C 240.464 180.580,240.001 180.400,239.571 180.400 C 239.141 180.400,238.387 180.192,237.895 179.938 C 236.016 178.966,235.593 178.800,235.000 178.800 C 234.664 178.800,234.077 178.635,233.695 178.434 C 233.313 178.232,232.280 177.762,231.400 177.390 C 230.520 177.018,229.277 176.462,228.639 176.156 C 228.000 175.850,227.301 175.600,227.086 175.600 C 226.871 175.600,225.819 174.970,224.747 174.200 C 223.675 173.430,222.717 172.800,222.617 172.800 C 221.766 172.800,218.000 167.622,218.000 166.452 C 218.000 166.009,217.850 165.555,217.668 165.442 C 216.867 164.947,216.298 159.821,216.774 157.390 C 217.591 153.216,218.488 151.483,221.220 148.799 C 223.218 146.836,225.308 145.527,228.400 144.303 C 228.950 144.085,229.713 143.748,230.095 143.553 C 230.477 143.359,231.231 143.200,231.771 143.200 C 232.311 143.200,232.852 143.040,232.973 142.844 C 233.792 141.519,255.973 141.516,257.380 142.842 C 257.589 143.039,258.446 143.200,259.285 143.200 C 260.124 143.200,261.123 143.362,261.505 143.561 C 261.887 143.760,263.010 144.147,264.000 144.421 C 269.375 145.913,276.255 148.485,279.112 150.071 C 279.834 150.472,280.649 150.800,280.924 150.800 C 281.199 150.800,281.683 151.160,282.000 151.600 C 282.317 152.040,282.897 152.400,283.288 152.400 C 283.680 152.400,284.000 152.580,284.000 152.800 C 284.000 153.020,284.178 153.200,284.395 153.200 C 284.763 153.200,285.806 153.953,286.991 155.075 C 289.676 157.616,292.967 158.555,295.180 157.410 C 296.332 156.815,299.200 153.748,299.200 153.111 C 299.200 152.921,299.389 152.549,299.620 152.283 C 299.851 152.017,301.195 150.180,302.606 148.200 C 304.018 146.220,305.359 144.383,305.586 144.117 C 305.814 143.851,306.000 143.538,306.000 143.420 C 306.000 143.303,306.646 142.350,307.435 141.303 C 308.224 140.257,309.259 138.876,309.735 138.237 C 310.211 137.597,310.825 136.845,311.100 136.565 C 311.375 136.286,311.600 135.864,311.600 135.629 C 311.600 135.393,311.735 135.199,311.900 135.197 C 312.990 135.186,313.601 130.699,312.733 129.074 C 312.152 127.985,310.269 126.204,308.751 125.307 C 308.118 124.933,307.600 124.486,307.600 124.314 C 307.600 124.141,307.364 124.000,307.075 124.000 C 306.787 124.000,306.164 123.640,305.692 123.200 C 305.220 122.760,304.646 122.400,304.417 122.400 C 304.188 122.400,304.000 122.220,304.000 122.000 C 304.000 121.780,303.730 121.600,303.400 121.600 C 303.070 121.600,302.799 121.465,302.797 121.300 C 302.795 121.135,302.390 120.797,301.897 120.548 C 301.404 120.300,299.830 119.449,298.400 118.657 C 296.970 117.866,295.485 117.214,295.100 117.209 C 294.715 117.204,294.400 117.020,294.400 116.800 C 294.400 116.580,294.040 116.400,293.600 116.400 C 293.160 116.400,292.800 116.220,292.800 116.000 C 292.800 115.780,292.440 115.600,292.000 115.600 C 291.560 115.600,291.200 115.420,291.200 115.200 C 291.200 114.980,290.840 114.800,290.400 114.800 C 289.960 114.800,289.600 114.620,289.600 114.400 C 289.600 114.180,289.150 114.000,288.600 114.000 C 288.050 114.000,287.600 113.820,287.600 113.600 C 287.600 113.380,287.251 113.200,286.824 113.200 C 286.397 113.200,285.936 113.020,285.800 112.800 C 285.664 112.580,285.201 112.400,284.771 112.400 C 284.341 112.400,283.587 112.192,283.095 111.938 C 281.174 110.944,280.784 110.800,280.029 110.800 C 279.599 110.800,279.136 110.620,279.000 110.400 C 278.864 110.180,278.259 110.000,277.656 110.000 C 277.053 110.000,276.389 109.849,276.180 109.664 C 275.971 109.480,274.720 109.105,273.400 108.831 C 272.080 108.557,270.100 108.092,269.000 107.797 C 267.900 107.502,265.470 107.056,263.600 106.805 C 261.730 106.555,259.300 106.187,258.200 105.989 C 255.532 105.508,242.896 105.298,237.400 105.643 M113.361 106.245 C 111.638 106.856,111.105 107.572,110.421 110.200 C 109.764 112.722,109.842 298.304,110.500 299.702 C 111.850 302.569,108.974 302.400,156.506 302.400 C 205.004 302.400,202.299 302.603,203.038 298.908 C 203.484 296.679,200.783 293.200,198.606 293.200 C 198.273 293.200,198.000 293.020,198.000 292.800 C 198.000 292.580,197.640 292.400,197.200 292.400 C 196.760 292.400,196.400 292.220,196.400 292.000 C 196.400 291.780,196.040 291.600,195.600 291.600 C 195.160 291.600,194.800 291.454,194.800 291.275 C 194.800 291.096,194.170 290.702,193.400 290.400 C 192.630 290.098,192.000 289.704,192.000 289.525 C 192.000 289.346,191.824 289.200,191.610 289.200 C 191.395 289.200,189.411 288.030,187.200 286.600 C 184.989 285.170,183.005 284.000,182.790 284.000 C 182.576 284.000,182.400 283.859,182.400 283.686 C 182.400 283.514,181.905 283.080,181.300 282.721 C 180.695 282.363,179.810 281.740,179.334 281.335 C 178.006 280.209,177.157 279.524,175.199 278.002 C 172.705 276.064,171.039 274.592,168.178 271.800 C 166.826 270.480,164.702 268.416,163.459 267.213 L 161.199 265.027 155.300 264.813 L 149.400 264.600 149.400 186.542 C 149.400 98.602,149.727 107.532,146.459 106.167 C 144.456 105.330,115.749 105.397,113.361 106.245 M258.200 110.030 C 259.520 110.243,261.770 110.607,263.200 110.838 C 269.331 111.829,274.357 113.045,279.800 114.855 C 282.250 115.669,282.892 115.909,285.000 116.800 C 285.660 117.079,286.560 117.443,287.000 117.610 C 294.268 120.360,308.320 128.808,309.598 131.196 C 309.906 131.773,307.581 135.830,306.386 136.800 C 306.251 136.910,305.357 138.170,304.400 139.600 C 303.443 141.030,302.548 142.290,302.412 142.400 C 302.275 142.510,300.929 144.400,299.420 146.600 C 295.292 152.617,293.891 154.400,293.291 154.400 C 292.834 154.400,290.261 152.716,289.600 151.983 C 287.339 149.479,274.554 143.497,267.300 141.549 C 266.585 141.357,265.325 141.008,264.500 140.773 C 258.351 139.025,256.016 138.751,245.400 138.536 C 238.787 138.403,235.302 138.486,234.200 138.804 C 233.320 139.058,231.880 139.452,231.000 139.679 C 229.359 140.102,227.931 140.623,226.705 141.247 C 226.323 141.441,225.830 141.600,225.610 141.600 C 225.040 141.600,220.036 144.923,218.577 146.271 C 216.832 147.882,215.039 150.706,214.430 152.800 C 214.143 153.790,213.736 155.072,213.526 155.650 C 213.066 156.916,213.310 164.024,213.883 166.052 C 215.841 172.974,220.688 177.436,230.352 181.214 C 232.688 182.128,234.960 183.029,235.400 183.217 C 236.503 183.689,239.909 184.817,241.600 185.270 C 242.370 185.476,243.540 185.805,244.200 186.000 C 246.401 186.651,248.586 187.250,250.000 187.590 C 251.606 187.976,262.718 190.852,266.000 191.731 C 268.256 192.335,276.366 194.968,277.800 195.562 C 300.268 204.863,310.896 215.277,313.969 231.000 C 314.227 232.320,314.637 234.297,314.880 235.392 C 315.449 237.962,315.471 252.536,314.909 254.837 C 314.672 255.807,314.264 257.590,314.002 258.800 C 312.910 263.848,308.505 273.380,306.424 275.200 C 306.298 275.310,305.668 276.120,305.024 277.000 C 300.483 283.201,284.585 294.400,280.322 294.400 C 280.013 294.400,279.589 294.549,279.380 294.730 C 279.171 294.912,278.190 295.293,277.200 295.576 C 276.210 295.859,275.040 296.229,274.600 296.397 C 274.160 296.565,272.810 296.913,271.600 297.171 C 270.390 297.428,268.680 297.794,267.800 297.984 C 262.109 299.210,260.046 299.370,249.800 299.382 C 238.482 299.394,234.682 299.037,226.000 297.142 C 222.948 296.476,218.068 295.210,217.000 294.807 C 216.560 294.641,214.940 294.112,213.400 293.632 C 211.860 293.152,210.150 292.564,209.600 292.326 C 209.050 292.088,208.240 291.755,207.800 291.587 C 204.879 290.471,197.427 286.900,194.900 285.405 C 193.965 284.852,192.485 283.995,191.610 283.500 C 189.697 282.417,180.926 276.346,179.800 275.325 C 179.359 274.926,178.369 274.125,177.600 273.545 C 175.096 271.659,174.400 270.919,174.408 270.153 C 174.419 269.129,180.907 260.220,185.400 255.059 C 186.114 254.239,188.163 251.791,189.800 249.802 C 192.394 246.651,192.341 246.685,193.386 247.493 C 208.153 258.921,220.735 265.538,232.800 268.221 C 252.364 272.571,268.269 270.198,276.756 261.661 C 287.086 251.272,284.770 235.916,271.800 228.802 C 270.920 228.320,270.029 227.762,269.820 227.562 C 269.611 227.363,269.116 227.200,268.720 227.200 C 268.324 227.200,268.000 227.020,268.000 226.800 C 268.000 226.580,267.764 226.400,267.475 226.400 C 267.186 226.400,266.205 226.040,265.294 225.600 C 264.384 225.160,263.448 224.800,263.214 224.800 C 262.980 224.800,262.477 224.630,262.095 224.422 C 260.787 223.709,252.538 221.378,243.500 219.167 C 242.675 218.965,241.325 218.635,240.500 218.433 C 237.505 217.700,235.381 217.109,234.481 216.758 C 233.976 216.561,233.131 216.400,232.605 216.400 C 232.078 216.400,231.536 216.220,231.400 216.000 C 231.264 215.780,230.711 215.600,230.171 215.600 C 229.631 215.600,228.877 215.438,228.495 215.239 C 228.113 215.040,226.990 214.660,226.000 214.393 C 225.010 214.127,223.840 213.756,223.400 213.570 C 222.960 213.384,221.160 212.773,219.400 212.212 C 200.781 206.282,188.064 195.149,183.287 180.600 C 176.285 159.274,182.551 135.674,198.400 123.673 C 199.610 122.757,200.780 121.865,201.000 121.692 C 202.124 120.808,208.573 117.192,211.500 115.806 C 222.770 110.467,244.385 107.794,258.200 110.030 M146.000 188.976 C 146.000 251.723,146.103 268.018,146.500 268.268 C 146.775 268.441,149.864 268.624,153.365 268.673 L 159.730 268.763 165.583 274.482 C 171.095 279.867,172.348 280.976,176.511 284.152 C 180.280 287.029,189.022 292.593,192.610 294.399 C 193.264 294.729,193.890 295.089,194.000 295.199 C 194.415 295.615,197.695 297.200,198.142 297.200 C 198.398 297.200,198.833 297.561,199.108 298.002 C 199.608 298.803,199.554 298.803,156.905 298.702 L 114.200 298.600 114.091 205.200 C 114.031 153.830,114.079 111.395,114.198 110.900 L 114.415 110.000 130.208 110.000 L 146.000 110.000 146.000 188.976 " stroke="none" fill="#f6f6f6" fill-rule="evenodd"></path><path id="path1" d="M234.800 110.447 C 227.899 111.408,225.967 111.739,223.041 112.466 C 218.120 113.687,215.901 114.445,212.862 115.943 C 211.906 116.414,210.886 116.800,210.596 116.800 C 210.305 116.800,210.007 116.935,209.933 117.100 C 209.860 117.265,208.900 117.846,207.800 118.391 C 206.080 119.243,199.384 123.416,198.800 124.000 C 198.690 124.110,197.387 125.249,195.904 126.530 C 192.496 129.476,188.530 134.740,186.382 139.169 C 185.467 141.056,184.557 142.913,184.359 143.295 C 184.162 143.677,184.000 144.341,184.000 144.771 C 184.000 145.201,183.820 145.664,183.600 145.800 C 183.380 145.936,183.200 146.541,183.200 147.144 C 183.200 147.747,183.038 148.411,182.841 148.620 C 181.080 150.484,181.080 174.716,182.841 176.580 C 183.038 176.789,183.200 177.543,183.200 178.256 C 183.200 178.969,183.380 179.664,183.600 179.800 C 183.820 179.936,184.000 180.399,184.000 180.829 C 184.000 181.259,184.180 181.968,184.400 182.405 C 184.620 182.842,184.980 183.558,185.200 183.995 C 185.420 184.432,185.600 185.062,185.600 185.395 C 185.600 185.728,185.738 186.000,185.906 186.000 C 186.074 186.000,186.506 186.681,186.867 187.513 C 187.903 189.904,192.068 195.262,194.645 197.518 C 197.522 200.036,202.940 204.133,204.358 204.863 C 204.931 205.158,205.490 205.497,205.600 205.617 C 206.748 206.873,219.764 212.003,226.800 213.974 C 227.790 214.251,228.913 214.640,229.295 214.839 C 229.677 215.038,230.431 215.200,230.971 215.200 C 231.511 215.200,232.064 215.380,232.200 215.600 C 232.336 215.820,232.966 216.000,233.600 216.000 C 234.234 216.000,234.864 216.180,235.000 216.400 C 235.136 216.620,235.856 216.800,236.600 216.800 C 237.344 216.800,238.052 216.960,238.173 217.156 C 238.294 217.351,238.979 217.613,239.696 217.737 C 240.413 217.861,241.630 218.073,242.400 218.208 C 243.170 218.344,244.160 218.609,244.600 218.797 C 245.040 218.986,245.940 219.251,246.600 219.388 C 247.260 219.524,248.475 219.808,249.300 220.018 C 250.125 220.228,251.475 220.560,252.300 220.756 C 254.374 221.249,262.024 223.547,263.000 223.971 C 263.440 224.162,264.520 224.626,265.400 225.002 C 273.354 228.401,279.235 232.720,280.836 236.336 C 281.144 237.031,281.531 237.600,281.698 237.600 C 281.864 237.600,282.000 237.949,282.000 238.376 C 282.000 238.803,282.160 239.252,282.356 239.373 C 282.871 239.691,283.246 242.063,283.467 246.400 C 283.689 250.758,283.272 252.680,281.169 256.984 C 280.060 259.254,275.856 263.736,273.200 265.478 C 269.658 267.801,264.067 269.645,257.154 270.770 C 240.751 273.437,211.239 263.752,197.038 251.040 C 196.399 250.468,195.769 249.997,195.638 249.994 C 195.507 249.990,194.791 249.450,194.046 248.794 C 192.323 247.275,192.544 247.195,190.200 250.194 C 189.119 251.577,187.485 253.550,185.055 256.406 C 184.585 256.959,183.725 258.039,183.145 258.806 C 182.565 259.573,181.690 260.650,181.201 261.200 C 178.142 264.639,174.241 270.783,175.100 270.809 C 175.265 270.814,176.120 271.468,177.000 272.262 C 177.880 273.056,179.230 274.176,180.000 274.751 C 180.770 275.325,181.490 275.900,181.600 276.029 C 182.119 276.635,190.767 282.400,191.157 282.400 C 191.400 282.400,191.600 282.559,191.600 282.753 C 191.600 282.948,191.915 283.207,192.300 283.329 C 193.032 283.561,195.255 284.838,195.600 285.224 C 195.960 285.628,204.942 289.855,207.400 290.777 C 210.369 291.891,211.600 292.392,212.495 292.847 C 212.877 293.041,213.464 293.200,213.800 293.200 C 214.136 293.200,214.723 293.362,215.105 293.561 C 215.487 293.760,216.610 294.140,217.600 294.407 C 218.590 294.673,219.760 295.038,220.200 295.218 C 220.640 295.398,221.630 295.654,222.400 295.787 C 225.784 296.372,226.243 296.473,227.000 296.798 C 227.440 296.987,228.700 297.259,229.800 297.402 C 230.900 297.545,232.970 297.852,234.400 298.084 C 237.869 298.647,261.105 298.640,264.200 298.075 C 265.520 297.834,267.590 297.441,268.800 297.202 C 270.010 296.962,271.587 296.664,272.304 296.539 C 273.021 296.414,273.706 296.151,273.827 295.956 C 273.948 295.760,274.566 295.600,275.200 295.600 C 275.834 295.600,276.464 295.420,276.600 295.200 C 276.736 294.980,277.199 294.800,277.629 294.800 C 278.059 294.800,278.723 294.641,279.105 294.447 C 279.487 294.252,280.250 293.911,280.800 293.689 C 284.949 292.012,294.101 287.011,294.800 286.040 C 294.910 285.887,295.630 285.321,296.400 284.783 C 298.540 283.288,302.244 279.650,304.117 277.202 C 305.043 275.992,306.082 274.689,306.426 274.305 C 315.558 264.130,317.551 238.447,310.469 222.200 C 309.893 220.880,309.282 219.740,309.111 219.667 C 308.940 219.593,308.800 219.356,308.800 219.139 C 308.800 218.270,305.472 213.950,302.561 211.039 C 298.328 206.805,293.347 203.482,285.800 199.854 C 281.380 197.730,280.746 197.451,276.800 195.900 C 276.250 195.684,275.487 195.348,275.105 195.153 C 274.723 194.959,274.059 194.800,273.629 194.800 C 273.199 194.800,272.736 194.620,272.600 194.400 C 272.464 194.180,272.001 194.000,271.571 194.000 C 271.141 194.000,270.477 193.838,270.095 193.639 C 269.713 193.440,268.590 193.060,267.600 192.793 C 266.610 192.526,265.350 192.160,264.800 191.981 C 264.250 191.801,262.540 191.368,261.000 191.019 C 258.347 190.416,253.220 189.141,250.600 188.433 C 246.611 187.354,245.731 187.086,245.105 186.761 C 244.723 186.562,243.969 186.400,243.429 186.400 C 242.889 186.400,242.336 186.220,242.200 186.000 C 242.064 185.780,241.434 185.600,240.800 185.600 C 240.166 185.600,239.536 185.420,239.400 185.200 C 239.264 184.980,238.724 184.800,238.200 184.800 C 237.676 184.800,237.136 184.620,237.000 184.400 C 236.864 184.180,236.313 184.000,235.776 184.000 C 235.239 184.000,234.800 183.820,234.800 183.600 C 234.800 183.380,234.438 183.200,233.995 183.200 C 233.552 183.200,232.877 183.041,232.495 182.847 C 232.113 182.652,231.305 182.292,230.700 182.047 C 230.095 181.801,229.105 181.398,228.500 181.151 C 215.173 175.709,208.598 162.599,214.033 152.305 C 214.235 151.923,214.400 151.416,214.400 151.177 C 214.400 148.979,222.841 141.200,225.227 141.200 C 225.438 141.200,225.968 141.020,226.405 140.800 C 226.842 140.580,227.558 140.220,227.995 140.000 C 228.432 139.780,229.141 139.600,229.571 139.600 C 230.001 139.600,230.452 139.440,230.573 139.244 C 231.548 137.666,250.709 137.339,258.400 138.769 C 259.610 138.994,261.277 139.293,262.104 139.433 C 262.931 139.574,263.706 139.849,263.827 140.044 C 263.948 140.240,264.429 140.400,264.895 140.400 C 265.796 140.400,268.139 141.065,269.295 141.649 C 269.677 141.842,270.264 142.000,270.600 142.000 C 270.936 142.000,271.523 142.170,271.905 142.378 C 272.287 142.586,274.126 143.324,275.990 144.018 C 280.409 145.662,286.408 148.798,288.393 150.500 C 288.842 150.885,289.295 151.200,289.400 151.200 C 289.578 151.200,290.010 151.536,292.095 153.300 C 293.050 154.108,294.800 153.350,294.800 152.129 C 294.800 151.921,295.120 151.402,295.510 150.975 C 295.901 150.549,297.464 148.400,298.985 146.200 C 300.505 144.000,301.850 142.110,301.974 142.000 C 302.098 141.890,303.003 140.630,303.985 139.200 C 304.967 137.770,305.973 136.391,306.220 136.137 C 306.467 135.882,307.268 134.740,308.000 133.599 L 309.331 131.525 308.087 130.363 C 307.403 129.723,306.688 129.200,306.497 129.200 C 306.307 129.200,305.802 128.878,305.375 128.483 C 302.867 126.165,292.429 120.352,286.600 118.026 C 284.882 117.341,283.369 116.691,282.705 116.353 C 282.323 116.159,281.659 116.000,281.229 116.000 C 280.799 116.000,280.336 115.820,280.200 115.600 C 280.064 115.380,279.601 115.200,279.171 115.200 C 278.741 115.200,278.077 115.029,277.695 114.820 C 272.068 111.742,245.184 109.001,234.800 110.447 M114.681 204.283 C 114.544 255.698,114.530 297.863,114.650 297.983 C 114.975 298.306,121.010 298.319,161.299 298.088 L 197.997 297.876 195.899 296.854 C 194.744 296.291,193.710 295.732,193.600 295.610 C 193.490 295.489,192.500 294.947,191.400 294.405 C 187.490 292.482,175.690 284.697,174.400 283.189 C 174.290 283.060,173.300 282.286,172.200 281.467 C 171.100 280.649,167.819 277.615,164.909 274.726 L 159.618 269.471 153.509 269.417 C 146.528 269.355,145.772 269.122,145.355 266.902 C 145.202 266.083,145.177 230.625,145.301 188.106 L 145.526 110.800 130.228 110.800 L 114.931 110.800 114.681 204.283 " stroke="none" fill="#040404" fill-rule="evenodd"></path><path id="path2" d="M241.921 109.899 C 244.188 109.970,247.788 109.970,249.921 109.898 C 252.055 109.826,250.200 109.768,245.800 109.768 C 241.400 109.768,239.655 109.827,241.921 109.899 M114.587 110.895 C 114.481 111.173,114.441 140.920,114.499 177.000 L 114.602 242.600 114.701 176.700 L 114.800 110.800 130.196 110.800 L 145.591 110.800 145.702 127.700 L 145.813 144.600 145.806 127.600 L 145.800 110.600 130.289 110.495 C 118.094 110.413,114.737 110.498,114.587 110.895 M231.507 110.690 C 232.226 110.779,233.306 110.777,233.907 110.686 C 234.508 110.595,233.920 110.522,232.600 110.524 C 231.280 110.526,230.788 110.601,231.507 110.690 M257.300 110.687 C 257.905 110.778,258.895 110.778,259.500 110.687 C 260.105 110.595,259.610 110.520,258.400 110.520 C 257.190 110.520,256.695 110.595,257.300 110.687 M225.200 111.595 C 224.791 111.855,225.110 111.899,226.200 111.732 C 228.177 111.429,228.514 111.198,226.967 111.206 C 226.325 111.209,225.530 111.384,225.200 111.595 M263.233 111.343 C 263.325 111.422,264.120 111.597,265.000 111.732 C 266.090 111.899,266.409 111.855,266.000 111.595 C 265.453 111.246,262.845 111.009,263.233 111.343 M201.995 121.454 C 199.612 123.031,198.249 124.210,200.200 123.006 C 203.475 120.983,204.815 120.000,204.295 120.000 C 204.237 120.000,203.202 120.654,201.995 121.454 M293.200 120.983 C 293.200 121.163,295.602 122.400,295.950 122.400 C 296.297 122.400,294.694 121.367,293.900 121.079 C 293.515 120.939,293.200 120.896,293.200 120.983 M195.400 126.633 L 193.000 128.865 195.500 126.773 C 197.723 124.912,198.243 124.398,197.900 124.401 C 197.845 124.401,196.720 125.406,195.400 126.633 M304.800 127.895 C 304.800 128.284,306.414 129.319,306.651 129.082 C 306.747 128.986,306.369 128.610,305.812 128.245 C 305.256 127.880,304.800 127.722,304.800 127.895 M308.170 130.448 C 308.874 131.002,309.163 131.523,309.001 131.948 C 308.803 132.467,308.854 132.499,309.251 132.105 C 309.767 131.593,308.355 129.600,307.476 129.600 C 307.265 129.600,307.577 129.982,308.170 130.448 M189.014 133.900 C 188.247 134.945,187.615 135.965,187.610 136.167 C 187.604 136.368,187.656 136.458,187.723 136.367 C 189.083 134.531,190.752 132.000,190.603 132.000 C 190.496 132.000,189.780 132.855,189.014 133.900 M242.313 137.895 C 243.476 137.976,245.276 137.976,246.313 137.893 C 247.351 137.811,246.400 137.745,244.200 137.746 C 242.000 137.747,241.151 137.814,242.313 137.895 M233.600 138.418 C 233.162 138.715,233.324 138.752,234.200 138.556 C 235.671 138.227,235.990 137.998,234.967 138.006 C 234.545 138.009,233.930 138.195,233.600 138.418 M252.833 138.147 C 252.925 138.228,253.879 138.388,254.954 138.504 C 256.149 138.632,256.693 138.578,256.354 138.363 C 255.835 138.035,252.471 137.828,252.833 138.147 M300.892 143.429 C 300.397 144.183,300.072 144.800,300.169 144.800 C 300.447 144.800,302.104 142.371,301.939 142.206 C 301.857 142.124,301.386 142.674,300.892 143.429 M277.200 144.589 C 277.200 144.906,280.100 146.033,280.328 145.805 C 280.441 145.692,280.435 145.600,280.316 145.600 C 280.196 145.600,279.446 145.328,278.649 144.995 C 277.852 144.662,277.200 144.479,277.200 144.589 M280.800 146.184 C 280.800 146.294,281.520 146.751,282.400 147.200 C 283.280 147.649,284.000 147.926,284.000 147.816 C 284.000 147.706,283.280 147.249,282.400 146.800 C 281.520 146.351,280.800 146.074,280.800 146.184 M286.000 149.220 C 287.387 150.161,288.178 150.435,287.200 149.636 C 286.650 149.186,286.020 148.817,285.800 148.815 C 285.580 148.813,285.670 148.996,286.000 149.220 M145.395 208.400 C 145.395 240.850,145.442 254.125,145.500 237.900 C 145.558 221.675,145.558 195.125,145.500 178.900 C 145.442 162.675,145.395 175.950,145.395 208.400 M181.829 151.829 C 181.681 152.415,181.638 152.972,181.732 153.066 C 181.827 153.160,182.024 152.758,182.171 152.171 C 182.319 151.585,182.362 151.028,182.268 150.934 C 182.173 150.840,181.976 151.242,181.829 151.829 M212.650 156.450 C 212.317 158.117,212.640 158.440,213.000 156.800 C 213.152 156.109,213.193 155.459,213.091 155.358 C 212.989 155.256,212.791 155.747,212.650 156.450 M181.054 158.256 C 180.731 160.618,180.765 164.942,181.123 166.958 C 181.282 167.853,181.400 165.936,181.400 162.458 C 181.400 155.656,181.404 155.705,181.054 158.256 M181.656 172.400 C 181.656 172.730,181.811 173.360,182.000 173.800 C 182.217 174.304,182.344 174.378,182.344 174.000 C 182.344 173.670,182.189 173.040,182.000 172.600 C 181.783 172.096,181.656 172.022,181.656 172.400 M218.200 174.800 C 219.059 175.680,219.852 176.400,219.962 176.400 C 220.072 176.400,219.459 175.680,218.600 174.800 C 217.741 173.920,216.948 173.200,216.838 173.200 C 216.728 173.200,217.341 173.920,218.200 174.800 M186.015 186.400 C 186.021 186.730,186.290 187.349,186.613 187.776 C 187.368 188.775,187.363 188.405,186.602 186.946 C 186.274 186.316,186.010 186.070,186.015 186.400 M247.800 187.580 C 249.585 188.328,251.940 188.885,252.454 188.680 C 252.763 188.557,252.598 188.449,252.074 188.432 C 251.564 188.414,250.844 188.245,250.474 188.056 C 250.103 187.867,249.170 187.607,248.400 187.479 C 247.461 187.322,247.264 187.355,247.800 187.580 M187.843 189.927 C 188.259 190.657,188.948 191.557,189.374 191.927 C 189.824 192.318,189.666 191.931,188.996 191.000 C 187.393 188.774,186.950 188.361,187.843 189.927 M254.433 189.344 C 254.525 189.423,255.140 189.608,255.800 189.756 C 256.676 189.952,256.838 189.915,256.400 189.618 C 255.860 189.253,254.032 188.998,254.433 189.344 M257.233 190.143 C 257.325 190.221,258.030 190.401,258.800 190.542 C 259.785 190.723,260.022 190.682,259.600 190.406 C 259.058 190.050,256.837 189.803,257.233 190.143 M193.183 196.500 C 194.164 197.545,195.019 198.400,195.083 198.400 C 195.384 198.400,195.066 198.041,193.300 196.383 L 191.400 194.600 193.183 196.500 M197.744 200.309 C 198.060 200.821,200.400 202.553,200.400 202.275 C 200.400 202.176,199.739 201.591,198.932 200.975 C 198.124 200.359,197.589 200.059,197.744 200.309 M303.200 211.725 C 303.200 211.794,303.785 212.379,304.500 213.025 L 305.800 214.200 304.625 212.900 C 303.530 211.688,303.200 211.416,303.200 211.725 M224.833 213.744 C 224.925 213.823,225.540 214.008,226.200 214.156 C 227.076 214.352,227.238 214.315,226.800 214.018 C 226.260 213.653,224.432 213.398,224.833 213.744 M260.446 223.380 C 260.581 223.514,261.289 223.796,262.019 224.005 C 262.749 224.215,263.178 224.232,262.973 224.045 C 262.548 223.656,260.071 223.004,260.446 223.380 M265.654 225.387 C 265.990 225.723,268.800 226.816,268.800 226.611 C 268.800 226.501,268.148 226.138,267.351 225.805 C 265.875 225.189,265.318 225.051,265.654 225.387 M278.168 233.200 C 280.264 235.643,280.685 236.026,279.704 234.600 C 279.250 233.940,278.371 232.950,277.750 232.400 C 277.001 231.736,277.141 232.004,278.168 233.200 M314.101 234.600 C 314.105 235.480,314.187 235.793,314.283 235.295 C 314.379 234.798,314.375 234.078,314.275 233.695 C 314.175 233.313,314.096 233.720,314.101 234.600 M314.965 245.600 C 314.965 249.450,315.025 251.025,315.098 249.100 C 315.171 247.175,315.171 244.025,315.098 242.100 C 315.025 240.175,314.965 241.750,314.965 245.600 M283.044 243.000 C 283.373 244.471,283.602 244.790,283.594 243.767 C 283.591 243.345,283.405 242.730,283.182 242.400 C 282.885 241.962,282.848 242.124,283.044 243.000 M283.246 250.067 C 283.221 250.434,283.096 251.064,282.970 251.467 C 282.752 252.162,282.763 252.163,283.197 251.487 C 283.448 251.096,283.573 250.466,283.473 250.087 C 283.311 249.468,283.288 249.466,283.246 250.067 M187.808 252.700 C 186.949 253.745,186.660 254.240,187.166 253.800 C 188.061 253.022,189.798 250.800,189.512 250.800 C 189.434 250.800,188.667 251.655,187.808 252.700 M197.798 251.596 C 198.092 252.072,202.800 255.319,202.800 255.046 C 202.800 254.945,201.618 254.035,200.173 253.025 C 198.728 252.015,197.659 251.372,197.798 251.596 M314.249 253.815 C 314.112 254.173,314.023 255.036,314.050 255.733 C 314.092 256.787,314.150 256.698,314.399 255.200 C 314.717 253.286,314.659 252.748,314.249 253.815 M203.800 255.807 C 204.240 256.166,204.960 256.635,205.400 256.851 L 206.200 257.244 205.400 256.593 C 204.960 256.234,204.240 255.765,203.800 255.549 L 203.000 255.156 203.800 255.807 M313.384 258.700 C 313.256 259.305,313.083 260.141,312.998 260.558 C 312.914 260.974,312.991 261.154,313.170 260.958 C 313.519 260.574,314.062 257.600,313.782 257.600 C 313.690 257.600,313.511 258.095,313.384 258.700 M277.200 261.800 C 276.228 262.790,275.523 263.600,275.633 263.600 C 275.743 263.600,276.628 262.790,277.600 261.800 C 278.572 260.810,279.277 260.000,279.167 260.000 C 279.057 260.000,278.172 260.810,277.200 261.800 M218.400 263.789 C 218.400 264.106,221.300 265.233,221.528 265.005 C 221.641 264.892,221.635 264.800,221.516 264.800 C 221.396 264.800,220.646 264.528,219.849 264.195 C 219.052 263.862,218.400 263.679,218.400 263.789 M271.800 266.000 C 271.140 266.437,270.780 266.792,271.000 266.788 C 271.401 266.782,273.576 265.223,273.200 265.212 C 273.090 265.208,272.460 265.563,271.800 266.000 M223.946 266.216 C 224.686 266.537,225.496 266.793,225.746 266.784 C 225.996 266.776,225.594 266.506,224.854 266.184 C 224.114 265.863,223.304 265.607,223.054 265.616 C 222.804 265.624,223.206 265.894,223.946 266.216 M227.233 267.344 C 227.325 267.423,227.940 267.608,228.600 267.756 C 229.476 267.952,229.638 267.915,229.200 267.618 C 228.660 267.253,226.832 266.998,227.233 267.344 M148.800 269.286 C 150.975 269.599,159.680 269.555,159.364 269.233 C 159.274 269.142,156.365 269.045,152.900 269.018 C 148.391 268.983,147.225 269.059,148.800 269.286 M238.600 270.000 C 239.040 270.189,239.670 270.344,240.000 270.344 C 240.378 270.344,240.304 270.217,239.800 270.000 C 239.360 269.811,238.730 269.656,238.400 269.656 C 238.022 269.656,238.096 269.783,238.600 270.000 M244.500 270.676 C 244.885 270.776,245.515 270.776,245.900 270.676 C 246.285 270.575,245.970 270.493,245.200 270.493 C 244.430 270.493,244.115 270.575,244.500 270.676 M251.200 270.800 L 246.600 271.040 251.000 271.073 C 253.420 271.091,255.940 270.968,256.600 270.800 C 258.014 270.440,258.085 270.440,251.200 270.800 M164.000 273.800 C 165.417 275.230,166.667 276.400,166.777 276.400 C 166.887 276.400,165.817 275.230,164.400 273.800 C 162.983 272.370,161.733 271.200,161.623 271.200 C 161.513 271.200,162.583 272.370,164.000 273.800 M166.800 276.878 C 169.358 279.257,170.872 280.433,169.600 279.053 C 168.830 278.218,167.840 277.345,167.400 277.113 C 166.960 276.881,166.690 276.775,166.800 276.878 M178.400 286.111 C 178.400 286.187,178.985 286.678,179.700 287.201 C 180.504 287.790,180.784 287.887,180.433 287.455 C 179.900 286.799,178.400 285.807,178.400 286.111 M184.446 290.340 C 185.532 291.183,187.200 292.108,187.200 291.867 C 187.200 291.650,184.085 289.600,183.755 289.600 C 183.610 289.600,183.921 289.933,184.446 290.340 M169.000 298.064 C 152.940 298.246,134.083 298.347,127.096 298.287 C 119.384 298.222,114.747 298.319,115.296 298.535 C 116.540 299.024,197.675 298.485,198.177 297.983 C 198.387 297.773,198.479 297.630,198.380 297.666 C 198.281 297.703,185.060 297.882,169.000 298.064 M234.833 298.144 C 234.925 298.223,235.540 298.408,236.200 298.556 C 237.076 298.752,237.238 298.715,236.800 298.418 C 236.260 298.053,234.432 297.798,234.833 298.144 M262.000 298.418 C 261.562 298.715,261.724 298.752,262.600 298.556 C 264.071 298.227,264.390 297.998,263.367 298.006 C 262.945 298.009,262.330 298.195,262.000 298.418 M246.319 299.098 C 248.144 299.172,251.024 299.172,252.719 299.097 C 254.414 299.022,252.920 298.961,249.400 298.962 C 245.880 298.962,244.494 299.024,246.319 299.098 " stroke="none" fill="#5b5b5b" fill-rule="evenodd"></path><path id="path3" d="M242.700 109.495 C 243.855 109.576,245.745 109.576,246.900 109.495 C 248.055 109.414,247.110 109.348,244.800 109.348 C 242.490 109.348,241.545 109.414,242.700 109.495 M233.600 110.000 C 232.538 110.224,232.441 110.302,233.200 110.324 C 233.750 110.341,234.920 110.205,235.800 110.023 C 237.134 109.747,237.200 109.693,236.200 109.699 C 235.540 109.702,234.370 109.838,233.600 110.000 M255.600 110.000 C 256.150 110.176,257.140 110.317,257.800 110.313 L 259.000 110.305 257.800 110.000 C 257.140 109.832,256.150 109.691,255.600 109.687 L 254.600 109.680 255.600 110.000 M122.073 110.299 C 126.404 110.364,133.604 110.364,138.073 110.300 C 142.543 110.235,139.000 110.182,130.200 110.182 C 121.400 110.182,117.743 110.235,122.073 110.299 M227.800 110.800 L 227.000 111.144 227.800 111.144 C 228.240 111.144,228.960 110.989,229.400 110.800 L 230.200 110.456 229.400 110.456 C 228.960 110.456,228.240 110.611,227.800 110.800 M261.600 110.800 C 261.930 111.013,262.650 111.173,263.200 111.154 L 264.200 111.120 263.200 110.800 C 261.658 110.306,260.836 110.306,261.600 110.800 M114.098 204.476 C 114.044 256.108,114.135 298.436,114.300 298.538 C 114.571 298.706,114.570 235.354,114.298 144.600 C 114.241 125.900,114.151 152.844,114.098 204.476 M224.000 111.600 C 223.176 111.864,223.141 111.926,223.800 111.954 C 224.240 111.973,224.870 111.813,225.200 111.600 C 225.901 111.147,225.414 111.147,224.000 111.600 M266.400 111.582 C 266.730 111.805,267.345 111.991,267.767 111.994 C 268.790 112.002,268.471 111.773,267.000 111.444 C 266.124 111.248,265.962 111.285,266.400 111.582 M220.800 112.400 C 219.976 112.664,219.941 112.726,220.600 112.754 C 221.040 112.773,221.670 112.613,222.000 112.400 C 222.701 111.947,222.214 111.947,220.800 112.400 M270.000 112.394 C 270.330 112.611,271.035 112.791,271.567 112.794 C 272.851 112.802,272.525 112.575,270.800 112.258 C 269.815 112.077,269.578 112.118,270.000 112.394 M273.200 113.182 C 273.530 113.405,274.145 113.591,274.567 113.594 C 275.590 113.602,275.271 113.373,273.800 113.044 C 272.924 112.848,272.762 112.885,273.200 113.182 M276.000 113.982 C 276.330 114.205,276.945 114.391,277.367 114.394 C 278.390 114.402,278.071 114.173,276.600 113.844 C 275.724 113.648,275.562 113.685,276.000 113.982 M214.000 114.691 C 212.302 115.335,209.200 116.850,209.200 117.035 C 209.200 117.152,209.335 117.176,209.500 117.090 C 210.780 116.418,213.663 115.200,213.972 115.200 C 214.181 115.200,214.464 115.020,214.600 114.800 C 214.871 114.362,214.868 114.362,214.000 114.691 M296.400 122.179 C 296.400 122.289,296.940 122.659,297.600 123.000 C 298.260 123.341,298.800 123.531,298.800 123.421 C 298.800 123.311,298.260 122.941,297.600 122.600 C 296.940 122.259,296.400 122.069,296.400 122.179 M194.706 126.900 C 193.081 128.495,192.752 128.884,193.976 127.764 C 195.199 126.645,196.719 125.340,197.354 124.864 C 197.989 124.389,198.317 124.000,198.084 124.000 C 197.851 124.000,196.331 125.305,194.706 126.900 M301.200 124.976 C 301.200 125.086,302.550 126.087,304.200 127.200 C 305.850 128.313,307.200 129.134,307.200 129.024 C 307.200 128.914,305.850 127.913,304.200 126.800 C 302.550 125.687,301.200 124.866,301.200 124.976 M307.184 135.223 C 306.705 135.896,306.379 136.513,306.461 136.594 C 306.543 136.676,307.014 136.126,307.508 135.371 C 308.623 133.671,308.371 133.556,307.184 135.223 M241.717 138.297 C 243.211 138.374,245.551 138.374,246.917 138.296 C 248.282 138.218,247.060 138.155,244.200 138.155 C 241.340 138.156,240.222 138.220,241.717 138.297 M233.200 138.800 C 232.376 139.064,232.341 139.126,233.000 139.154 C 233.440 139.173,234.070 139.013,234.400 138.800 C 235.101 138.347,234.614 138.347,233.200 138.800 M254.800 138.787 C 255.791 139.117,258.687 139.335,258.367 139.054 C 258.275 138.974,257.210 138.806,256.000 138.681 C 254.580 138.534,254.154 138.571,254.800 138.787 M260.000 139.582 C 260.330 139.805,260.945 139.991,261.367 139.994 C 262.390 140.002,262.071 139.773,260.600 139.444 C 259.724 139.248,259.562 139.285,260.000 139.582 M263.200 140.382 C 263.530 140.605,264.145 140.791,264.567 140.794 C 265.590 140.802,265.271 140.573,263.800 140.244 C 262.924 140.048,262.762 140.085,263.200 140.382 M266.000 141.182 C 266.330 141.405,266.945 141.591,267.367 141.594 C 268.390 141.602,268.071 141.373,266.600 141.044 C 265.724 140.848,265.562 140.885,266.000 141.182 M222.300 143.029 C 220.232 144.383,220.403 144.658,222.500 143.351 C 224.517 142.095,224.645 141.993,224.167 142.024 C 223.965 142.036,223.125 142.489,222.300 143.029 M219.078 145.413 C 218.460 145.956,218.114 146.400,218.308 146.400 C 218.502 146.400,219.083 145.950,219.600 145.400 C 220.795 144.128,220.531 144.134,219.078 145.413 M296.317 150.457 C 295.282 151.980,294.608 153.119,294.819 152.988 C 295.318 152.680,298.514 147.977,298.336 147.814 C 298.261 147.745,297.353 148.935,296.317 150.457 M181.456 151.684 C 181.321 152.188,181.232 153.320,181.258 154.200 C 181.297 155.520,181.359 155.380,181.613 153.400 C 181.937 150.878,181.870 150.141,181.456 151.684 M289.633 152.116 C 289.725 152.180,290.520 152.733,291.400 153.345 L 293.000 154.458 291.615 153.229 C 290.853 152.553,290.058 152.000,289.848 152.000 C 289.638 152.000,289.542 152.052,289.633 152.116 M180.893 157.200 C 180.893 157.970,180.975 158.285,181.076 157.900 C 181.176 157.515,181.176 156.885,181.076 156.500 C 180.975 156.115,180.893 156.430,180.893 157.200 M212.931 159.800 C 212.933 161.340,213.005 161.921,213.092 161.091 C 213.179 160.261,213.177 159.001,213.089 158.291 C 213.000 157.581,212.929 158.260,212.931 159.800 M180.540 162.400 C 180.540 164.270,180.609 165.035,180.693 164.100 C 180.777 163.165,180.777 161.635,180.693 160.700 C 180.609 159.765,180.540 160.530,180.540 162.400 M145.793 208.800 C 145.793 233.770,145.841 243.985,145.900 231.500 C 145.959 219.015,145.959 198.585,145.900 186.100 C 145.841 173.615,145.793 183.830,145.793 208.800 M180.893 167.600 C 180.893 168.370,180.975 168.685,181.076 168.300 C 181.176 167.915,181.176 167.285,181.076 166.900 C 180.975 166.515,180.893 166.830,180.893 167.600 M181.320 171.200 C 181.320 172.410,181.395 172.905,181.487 172.300 C 181.578 171.695,181.578 170.705,181.487 170.100 C 181.395 169.495,181.320 169.990,181.320 171.200 M218.400 174.600 C 219.146 175.370,219.847 176.000,219.957 176.000 C 220.067 176.000,219.546 175.370,218.800 174.600 C 218.054 173.830,217.353 173.200,217.243 173.200 C 217.133 173.200,217.654 173.830,218.400 174.600 M182.006 176.033 C 182.009 176.565,182.189 177.270,182.406 177.600 C 182.682 178.022,182.723 177.785,182.542 176.800 C 182.225 175.075,181.998 174.749,182.006 176.033 M182.806 179.033 C 182.809 179.455,182.995 180.070,183.218 180.400 C 183.515 180.838,183.552 180.676,183.356 179.800 C 183.027 178.329,182.798 178.010,182.806 179.033 M229.200 181.031 C 229.200 181.301,231.278 182.056,231.476 181.857 C 231.567 181.767,231.092 181.501,230.420 181.267 C 229.749 181.033,229.200 180.927,229.200 181.031 M233.406 182.810 C 233.506 182.972,234.035 183.190,234.582 183.294 C 235.129 183.399,235.494 183.352,235.394 183.190 C 235.294 183.028,234.765 182.810,234.218 182.706 C 233.671 182.601,233.306 182.648,233.406 182.810 M250.400 188.000 C 250.730 188.213,251.270 188.388,251.600 188.388 C 252.133 188.388,252.133 188.345,251.600 188.000 C 251.270 187.787,250.730 187.612,250.400 187.612 C 249.867 187.612,249.867 187.655,250.400 188.000 M262.800 191.182 C 263.130 191.405,263.745 191.591,264.167 191.594 C 265.190 191.602,264.871 191.373,263.400 191.044 C 262.524 190.848,262.362 190.885,262.800 191.182 M267.800 192.612 C 268.680 192.929,269.670 193.183,270.000 193.176 C 270.330 193.170,269.880 192.905,269.000 192.588 C 268.120 192.271,267.130 192.017,266.800 192.024 C 266.470 192.030,266.920 192.295,267.800 192.612 M190.299 193.800 C 190.979 194.680,192.491 196.300,193.658 197.400 C 195.377 199.019,195.254 198.828,193.015 196.400 C 189.233 192.297,188.868 191.948,190.299 193.800 M197.200 200.371 C 197.970 201.058,199.140 201.992,199.800 202.448 C 200.812 203.147,200.781 203.081,199.600 202.029 C 198.830 201.342,197.660 200.408,197.000 199.952 C 195.988 199.253,196.019 199.319,197.200 200.371 M287.600 200.141 C 287.600 200.408,291.290 202.443,291.463 202.271 C 291.540 202.193,290.703 201.639,289.602 201.040 C 288.501 200.440,287.600 200.036,287.600 200.141 M292.600 203.007 C 293.040 203.366,293.760 203.835,294.200 204.051 L 295.000 204.444 294.200 203.793 C 293.760 203.434,293.040 202.965,292.600 202.749 L 291.800 202.356 292.600 203.007 M295.200 204.543 C 295.200 204.643,296.119 205.385,297.242 206.192 C 298.365 206.999,299.165 207.468,299.021 207.234 C 298.720 206.748,295.200 204.268,295.200 204.543 M300.488 208.613 C 301.086 209.243,301.647 209.677,301.735 209.579 C 301.823 209.480,301.333 208.965,300.647 208.434 L 299.400 207.469 300.488 208.613 M209.600 208.203 C 209.600 208.425,213.041 210.006,213.478 209.984 C 213.655 209.975,213.160 209.648,212.378 209.257 C 210.541 208.338,209.600 207.981,209.600 208.203 M307.949 217.000 C 308.165 217.440,308.634 218.160,308.993 218.600 L 309.644 219.400 309.251 218.600 C 309.035 218.160,308.566 217.440,308.207 217.000 L 307.556 216.200 307.949 217.000 M237.200 217.582 C 237.530 217.805,238.145 217.991,238.567 217.994 C 239.590 218.002,239.271 217.773,237.800 217.444 C 236.924 217.248,236.762 217.285,237.200 217.582 M240.400 218.394 C 240.730 218.611,241.435 218.791,241.967 218.794 C 243.251 218.802,242.925 218.575,241.200 218.258 C 240.215 218.077,239.978 218.118,240.400 218.394 M243.600 219.194 C 243.930 219.411,244.635 219.591,245.167 219.594 C 246.451 219.602,246.125 219.375,244.400 219.058 C 243.415 218.877,243.178 218.918,243.600 219.194 M246.800 219.994 C 247.130 220.211,247.835 220.391,248.367 220.394 C 249.651 220.402,249.325 220.175,247.600 219.858 C 246.615 219.677,246.378 219.718,246.800 219.994 M250.833 220.944 C 250.925 221.023,251.540 221.208,252.200 221.356 C 253.076 221.552,253.238 221.515,252.800 221.218 C 252.260 220.853,250.432 220.598,250.833 220.944 M253.633 221.744 C 253.725 221.823,254.340 222.008,255.000 222.156 C 255.876 222.352,256.038 222.315,255.600 222.018 C 255.060 221.653,253.232 221.398,253.633 221.744 M272.400 228.894 C 272.510 229.013,273.500 229.787,274.600 230.612 C 275.778 231.495,276.240 231.719,275.724 231.156 C 275.242 230.630,274.252 229.857,273.524 229.438 C 272.796 229.019,272.290 228.774,272.400 228.894 M313.656 230.800 C 313.656 231.130,313.811 231.760,314.000 232.200 C 314.217 232.704,314.344 232.778,314.344 232.400 C 314.344 232.070,314.189 231.440,314.000 231.000 C 313.783 230.496,313.656 230.422,313.656 230.800 M279.599 235.500 C 280.122 236.215,280.613 236.800,280.689 236.800 C 280.993 236.800,280.001 235.300,279.345 234.767 C 278.913 234.416,279.010 234.696,279.599 235.500 M314.468 235.200 C 314.488 236.239,315.118 237.946,315.132 237.000 C 315.138 236.560,314.989 235.840,314.800 235.400 C 314.589 234.910,314.461 234.832,314.468 235.200 M282.428 241.633 C 282.444 242.165,282.619 242.960,282.819 243.400 C 283.071 243.958,283.107 243.715,282.938 242.600 C 282.655 240.743,282.387 240.236,282.428 241.633 M315.331 245.400 C 315.333 246.940,315.405 247.521,315.492 246.691 C 315.579 245.861,315.577 244.601,315.489 243.891 C 315.400 243.181,315.329 243.860,315.331 245.400 M191.978 247.266 C 191.492 247.610,191.502 247.643,192.037 247.475 C 192.404 247.359,193.674 248.036,195.037 249.072 C 196.336 250.062,196.770 250.302,196.000 249.606 C 193.472 247.323,192.608 246.820,191.978 247.266 M282.656 250.884 C 282.521 251.388,282.427 252.160,282.446 252.600 C 282.465 253.040,282.645 252.698,282.846 251.840 C 283.236 250.178,283.070 249.340,282.656 250.884 M187.408 252.700 C 186.549 253.745,186.260 254.240,186.766 253.800 C 187.661 253.022,189.398 250.800,189.112 250.800 C 189.034 250.800,188.267 251.655,187.408 252.700 M198.944 251.909 C 199.260 252.421,201.600 254.153,201.600 253.875 C 201.600 253.776,200.939 253.191,200.132 252.575 C 199.324 251.959,198.789 251.659,198.944 251.909 M314.650 254.050 C 314.509 254.753,314.469 255.402,314.559 255.492 C 314.650 255.583,314.848 255.091,315.000 254.400 C 315.152 253.709,315.193 253.059,315.091 252.958 C 314.989 252.856,314.791 253.347,314.650 254.050 M281.086 255.910 L 280.373 257.400 281.177 256.400 C 281.620 255.850,281.986 255.175,281.991 254.900 C 282.005 254.133,281.860 254.295,281.086 255.910 M204.400 255.701 C 204.400 255.955,207.496 258.000,207.880 258.000 C 208.044 258.000,207.823 257.758,207.389 257.461 C 205.481 256.159,204.400 255.522,204.400 255.701 M182.148 259.100 C 181.096 260.365,179.974 261.715,179.655 262.100 C 179.337 262.485,179.168 262.800,179.281 262.800 C 179.394 262.800,180.594 261.450,181.948 259.800 C 183.302 258.150,184.332 256.800,184.236 256.800 C 184.140 256.800,183.201 257.835,182.148 259.100 M313.829 258.229 C 313.681 258.815,313.638 259.372,313.732 259.466 C 313.827 259.560,314.024 259.158,314.171 258.571 C 314.319 257.985,314.362 257.428,314.268 257.334 C 314.173 257.240,313.976 257.642,313.829 258.229 M209.200 258.764 C 209.750 259.214,210.380 259.583,210.600 259.585 C 211.028 259.588,210.305 259.034,209.000 258.360 C 208.469 258.085,208.536 258.221,209.200 258.764 M276.981 261.700 L 275.400 263.400 277.100 261.819 C 278.035 260.949,278.800 260.184,278.800 260.119 C 278.800 259.816,278.452 260.119,276.981 261.700 M177.775 264.668 C 177.159 265.476,176.859 266.011,177.109 265.856 C 177.621 265.540,179.353 263.200,179.075 263.200 C 178.976 263.200,178.391 263.861,177.775 264.668 M146.000 268.489 C 146.000 268.660,146.720 268.800,147.600 268.800 C 148.480 268.800,149.200 268.729,149.200 268.642 C 149.200 268.555,148.480 268.415,147.600 268.331 C 146.720 268.248,146.000 268.319,146.000 268.489 M232.400 268.394 C 232.730 268.611,233.435 268.791,233.967 268.794 C 235.251 268.802,234.925 268.575,233.200 268.258 C 232.215 268.077,231.978 268.118,232.400 268.394 M154.305 269.083 C 154.802 269.179,155.522 269.175,155.905 269.075 C 156.287 268.975,155.880 268.896,155.000 268.901 C 154.120 268.905,153.807 268.987,154.305 269.083 M164.794 274.100 C 169.806 279.209,170.400 279.781,170.400 279.494 C 170.400 279.436,167.925 276.961,164.900 273.994 L 159.400 268.600 164.794 274.100 M235.621 269.221 C 236.155 269.560,239.142 269.781,238.767 269.455 C 238.675 269.375,237.799 269.208,236.821 269.082 C 235.670 268.935,235.246 268.984,235.621 269.221 M262.200 269.200 C 261.093 269.482,261.077 269.509,262.000 269.547 C 262.550 269.569,263.270 269.413,263.600 269.200 C 264.281 268.760,263.929 268.760,262.200 269.200 M242.291 270.289 C 243.001 270.377,244.261 270.379,245.091 270.292 C 245.921 270.205,245.340 270.133,243.800 270.131 C 242.260 270.129,241.581 270.200,242.291 270.289 M256.505 270.287 C 257.114 270.379,258.014 270.377,258.505 270.282 C 258.997 270.187,258.500 270.111,257.400 270.114 C 256.300 270.117,255.897 270.195,256.505 270.287 M249.100 270.693 C 250.035 270.777,251.565 270.777,252.500 270.693 C 253.435 270.609,252.670 270.540,250.800 270.540 C 248.930 270.540,248.165 270.609,249.100 270.693 M307.699 272.828 C 306.985 273.907,306.400 274.925,306.400 275.090 C 306.400 275.255,307.045 274.432,307.833 273.261 C 308.621 272.091,309.206 271.073,309.132 270.999 C 309.058 270.925,308.413 271.748,307.699 272.828 M175.200 271.429 C 175.200 271.711,175.617 272.079,177.700 273.633 C 179.463 274.949,178.968 274.234,177.000 272.621 C 176.010 271.810,175.200 271.274,175.200 271.429 M181.600 276.543 C 181.600 276.643,182.519 277.385,183.642 278.192 C 184.765 278.999,185.565 279.468,185.421 279.234 C 185.120 278.748,181.600 276.268,181.600 276.543 M302.000 280.113 C 301.670 280.381,301.137 280.960,300.815 281.400 C 300.494 281.840,300.809 281.671,301.515 281.025 C 302.667 279.972,303.000 279.575,302.700 279.613 C 302.645 279.620,302.330 279.845,302.000 280.113 M171.611 280.661 C 172.155 281.025,173.061 281.700,173.624 282.161 C 174.187 282.623,173.938 282.325,173.072 281.500 C 172.206 280.675,171.300 280.000,171.060 280.000 C 170.819 280.000,171.067 280.298,171.611 280.661 M297.200 284.468 C 296.152 285.420,295.901 285.765,296.600 285.295 C 297.704 284.551,299.538 282.777,299.162 282.817 C 299.073 282.826,298.190 283.570,297.200 284.468 M293.281 287.372 C 291.423 288.685,291.162 289.061,292.731 288.162 C 293.463 287.743,294.250 287.175,294.480 286.900 C 295.071 286.193,294.793 286.302,293.281 287.372 M198.000 286.997 C 198.000 287.268,201.249 288.884,201.430 288.703 C 201.514 288.619,200.776 288.159,199.791 287.681 C 198.806 287.202,198.000 286.894,198.000 286.997 M186.400 291.164 C 186.950 291.614,187.580 291.983,187.800 291.985 C 188.228 291.988,187.505 291.434,186.200 290.760 C 185.669 290.485,185.736 290.621,186.400 291.164 M189.000 292.607 C 189.440 292.966,190.160 293.435,190.600 293.651 L 191.400 294.044 190.600 293.393 C 190.160 293.034,189.440 292.565,189.000 292.349 L 188.200 291.956 189.000 292.607 M222.800 296.394 C 223.130 296.611,223.835 296.791,224.367 296.794 C 225.651 296.802,225.325 296.575,223.600 296.258 C 222.615 296.077,222.378 296.118,222.800 296.394 M273.400 296.400 L 272.200 296.705 273.276 296.753 C 273.868 296.779,274.464 296.620,274.600 296.400 C 274.736 296.180,274.792 296.021,274.724 296.047 C 274.656 296.073,274.060 296.232,273.400 296.400 M198.252 297.791 C 198.447 298.299,197.350 298.400,190.540 298.500 L 182.600 298.618 191.103 298.709 C 199.517 298.799,199.602 298.792,199.107 298.000 C 198.527 297.071,197.919 296.923,198.252 297.791 M227.300 297.476 C 227.685 297.576,228.315 297.576,228.700 297.476 C 229.085 297.375,228.770 297.293,228.000 297.293 C 227.230 297.293,226.915 297.375,227.300 297.476 M230.200 298.010 C 230.970 298.331,234.707 298.551,234.367 298.255 C 234.275 298.176,233.120 298.013,231.800 297.893 C 230.351 297.762,229.717 297.808,230.200 298.010 M265.105 298.283 C 265.602 298.379,266.322 298.375,266.705 298.275 C 267.087 298.175,266.680 298.096,265.800 298.101 C 264.920 298.105,264.607 298.187,265.105 298.283 M238.100 299.091 C 238.925 299.178,240.275 299.178,241.100 299.091 C 241.925 299.005,241.250 298.934,239.600 298.934 C 237.950 298.934,237.275 299.005,238.100 299.091 M257.911 299.093 C 258.851 299.178,260.291 299.177,261.111 299.091 C 261.930 299.005,261.160 298.936,259.400 298.937 C 257.640 298.939,256.970 299.009,257.911 299.093 M246.120 299.498 C 248.055 299.572,251.115 299.571,252.920 299.497 C 254.724 299.423,253.140 299.363,249.400 299.364 C 245.660 299.364,244.184 299.425,246.120 299.498 " stroke="none" fill="#848484" fill-rule="evenodd"></path><path id="path4" d="M236.505 138.287 C 237.114 138.379,238.014 138.377,238.505 138.282 C 238.997 138.187,238.500 138.111,237.400 138.114 C 236.300 138.117,235.897 138.195,236.505 138.287 M250.105 138.287 C 250.714 138.379,251.614 138.377,252.105 138.282 C 252.597 138.187,252.100 138.111,251.000 138.114 C 249.900 138.117,249.497 138.195,250.105 138.287 M145.773 154.200 C 145.773 159.480,145.830 161.585,145.899 158.877 C 145.968 156.169,145.968 151.849,145.899 149.277 C 145.829 146.705,145.772 148.920,145.773 154.200 M212.501 159.400 C 212.505 160.280,212.587 160.593,212.683 160.095 C 212.779 159.598,212.775 158.878,212.675 158.495 C 212.575 158.113,212.496 158.520,212.501 159.400 M301.600 209.725 C 301.600 209.794,302.185 210.379,302.900 211.025 L 304.200 212.200 303.025 210.900 C 301.930 209.688,301.600 209.416,301.600 209.725 M283.331 247.000 C 283.333 248.540,283.405 249.121,283.492 248.291 C 283.579 247.461,283.577 246.201,283.489 245.491 C 283.400 244.781,283.329 245.460,283.331 247.000 M145.765 260.800 C 145.765 264.650,145.825 266.225,145.898 264.300 C 145.971 262.375,145.971 259.225,145.898 257.300 C 145.825 255.375,145.765 256.950,145.765 260.800 M151.100 269.082 C 151.595 269.178,152.405 269.178,152.900 269.082 C 153.395 268.987,152.990 268.909,152.000 268.909 C 151.010 268.909,150.605 268.987,151.100 269.082 M170.700 298.698 C 172.955 298.770,176.645 298.770,178.900 298.698 C 181.155 298.627,179.310 298.569,174.800 298.569 C 170.290 298.569,168.445 298.627,170.700 298.698 " stroke="none" fill="#747474" fill-rule="evenodd"></path></g></svg>